<svg version="1.0" xmlns="http://www.w3.org/2000/svg"
 width="50" height="50" viewBox="0 0 512.000000 512.000000"
 preserveAspectRatio="xMidYMid meet">

<g transform="translate(0.000000,512.000000) scale(0.100000,-0.100000)"
fill="#000000" stroke="none">
<path d="M2425 4935 c-24 -24 -25 -28 -25 -183 l0 -158 -76 -18 c-41 -10 -77
-16 -78 -15 -2 2 -36 60 -75 129 -78 135 -91 150 -131 150 -35 0 -610 -332
-626 -362 -8 -13 -13 -30 -14 -38 0 -8 34 -73 75 -145 41 -71 75 -133 75 -136
0 -8 -101 -109 -109 -109 -3 0 -64 34 -136 75 -71 41 -137 75 -145 75 -8 -1
-25 -6 -38 -14 -31 -16 -362 -590 -362 -626 0 -40 15 -53 150 -131 69 -39 127
-73 129 -75 2 -1 -5 -37 -15 -78 l-19 -76 -158 0 c-154 0 -158 -1 -182 -25
l-25 -24 0 -296 0 -295 80 0 80 0 0 240 0 240 150 0 c144 0 152 1 174 23 13
13 26 41 30 67 3 25 20 93 37 152 19 66 29 117 25 132 -5 20 -37 43 -136 102
-72 42 -128 79 -127 83 52 97 233 401 239 401 6 0 66 -32 134 -71 93 -54 129
-70 147 -65 32 8 255 231 263 262 5 18 -12 56 -65 149 -39 69 -71 129 -71 133
0 9 373 227 398 234 8 2 43 -48 86 -122 52 -89 80 -128 99 -134 19 -7 52 -1
134 22 59 17 128 35 153 38 26 4 54 17 67 30 22 22 23 30 23 174 l0 150 240 0
240 0 0 -150 c0 -144 1 -152 23 -174 13 -13 41 -26 67 -30 25 -3 94 -21 153
-38 82 -23 115 -29 134 -22 19 6 47 45 99 134 43 74 78 124 86 122 25 -7 398
-225 398 -234 0 -4 -32 -64 -71 -133 -53 -93 -70 -131 -65 -149 8 -31 231
-254 262 -262 18 -5 56 12 149 65 69 39 129 71 133 71 9 0 227 -373 234 -398
2 -8 -48 -43 -122 -86 -151 -88 -153 -92 -120 -203 13 -43 31 -114 41 -158 26
-114 27 -115 210 -115 l149 0 0 -240 0 -240 -149 0 c-183 0 -184 -1 -210 -115
-10 -44 -28 -115 -41 -158 -33 -111 -31 -115 120 -203 74 -43 124 -78 122 -86
-7 -25 -225 -398 -234 -398 -4 0 -64 32 -133 71 -93 53 -131 70 -149 65 -31
-8 -254 -231 -262 -262 -5 -18 12 -56 65 -149 39 -69 71 -129 71 -133 0 -9
-373 -227 -398 -234 -8 -2 -43 48 -86 122 -52 89 -80 128 -99 134 -19 7 -52 1
-134 -22 -59 -17 -128 -35 -153 -38 -26 -4 -54 -17 -67 -30 -22 -22 -23 -30
-23 -174 l0 -150 -160 0 -160 0 0 -80 0 -80 215 0 c282 0 265 -14 265 207 l0
158 76 19 c41 10 77 17 78 15 2 -2 36 -60 75 -128 40 -69 80 -131 89 -138 30
-22 66 -14 157 38 269 154 487 282 500 295 36 36 30 59 -49 197 -42 73 -76
136 -76 140 0 8 99 107 108 107 4 0 54 -27 112 -61 145 -84 166 -93 199 -79
15 6 36 25 46 43 155 260 325 567 325 587 0 40 -15 53 -150 131 -69 39 -127
73 -129 75 -1 1 5 37 15 78 l18 76 158 0 c155 0 159 1 183 25 l25 24 0 351 0
351 -25 24 c-24 24 -28 25 -183 25 l-158 0 -18 76 c-10 41 -16 77 -15 78 2 2
60 36 128 75 134 78 150 92 151 131 0 24 -303 563 -342 609 -37 43 -60 38
-201 -43 -73 -42 -136 -76 -140 -76 -8 0 -107 99 -107 108 0 4 27 54 61 112
84 145 93 166 79 199 -11 29 -56 57 -423 267 -179 103 -217 117 -249 92 -9 -7
-49 -69 -89 -138 -39 -69 -73 -127 -75 -129 -1 -2 -37 5 -78 15 l-76 19 0 158
c0 154 -1 158 -25 182 l-24 25 -351 0 -351 0 -24 -25z"/>
<path d="M2595 4144 c-508 -79 -930 -439 -1090 -929 -14 -44 -28 -98 -32 -121
l-5 -40 70 -13 c77 -14 92 -10 92 21 0 37 60 199 107 290 164 319 465 547 823
624 106 23 352 26 455 5 375 -74 689 -311 859 -649 84 -168 121 -329 121 -532
0 -158 -12 -235 -56 -373 -96 -295 -310 -547 -585 -689 -92 -48 -255 -108
-292 -108 -31 0 -35 -15 -21 -92 l13 -70 41 5 c23 4 84 20 136 38 462 155 809
551 906 1037 24 120 24 384 0 504 -21 103 -76 266 -119 352 -265 528 -846 830
-1423 740z"/>
<path d="M2985 3575 c-35 -34 -31 -69 15 -145 22 -35 36 -67 32 -71 -10 -9
-359 -209 -365 -209 -2 0 -33 43 -67 96 -64 97 -82 114 -119 114 -17 0 -493
-230 -510 -246 -5 -4 60 -144 66 -144 2 0 93 45 203 100 110 55 204 100 209
100 4 0 37 -43 71 -96 65 -97 82 -114 120 -114 11 0 120 56 241 125 120 69
225 128 233 131 9 3 30 -23 61 -76 26 -44 55 -85 65 -90 28 -15 66 -12 88 8
23 19 192 433 192 470 0 12 -11 34 -25 47 l-24 25 -231 0 -231 0 -24 -25z
m330 -152 c-4 -10 -16 -42 -27 -71 -12 -29 -22 -51 -23 -50 -2 2 -21 33 -44
71 l-41 67 71 0 c64 0 70 -2 64 -17z"/>
<path d="M3360 2600 l0 -360 80 0 80 0 0 360 0 360 -80 0 -80 0 0 -360z"/>
<path d="M1625 2874 c-90 -14 -198 -39 -260 -61 -593 -212 -921 -829 -764
-1437 l20 -79 -146 -147 c-167 -168 -169 -175 -106 -243 l40 -42 -125 -126
c-110 -111 -124 -130 -124 -160 0 -30 18 -52 193 -226 174 -175 196 -193 226
-193 30 0 49 14 160 124 l126 125 42 -40 c67 -62 76 -59 225 88 l128 127 98
-32 c171 -57 223 -65 397 -66 120 -1 181 4 245 18 474 103 834 462 936 936 14
62 18 127 18 240 0 113 -4 178 -18 240 -102 474 -462 834 -936 936 -73 15
-314 27 -375 18z m375 -182 c126 -33 232 -79 327 -141 468 -309 610 -920 325
-1403 -138 -235 -364 -402 -650 -480 -111 -31 -373 -31 -484 0 -363 99 -625
339 -740 677 -129 380 -35 786 248 1069 160 159 358 259 589 297 83 13 301 3
385 -19z m-1238 -1673 c71 -109 183 -228 283 -299 l75 -54 -67 -68 c-37 -37
-72 -68 -78 -68 -13 0 -445 432 -445 445 0 5 35 45 78 88 66 67 78 75 87 61 6
-9 36 -57 67 -105z m-97 -579 l-85 -85 -112 112 -113 113 85 85 85 85 112
-112 113 -113 -85 -85z"/>
<path d="M1596 2544 c-350 -63 -639 -356 -701 -709 -104 -600 417 -1125 1013
-1021 479 84 801 540 718 1015 -85 484 -544 803 -1030 715z m379 -178 c113
-36 198 -89 290 -181 91 -91 144 -175 182 -290 23 -71 26 -96 26 -215 0 -119
-3 -144 -26 -215 -38 -115 -91 -199 -182 -290 -91 -91 -175 -144 -290 -182
-71 -23 -96 -26 -215 -26 -119 0 -144 3 -215 26 -114 38 -198 90 -290 182 -91
91 -144 175 -182 290 -23 71 -26 96 -26 215 0 119 3 144 26 215 38 114 90 198
182 291 109 110 234 177 380 204 88 16 250 4 340 -24z"/>
<path d="M1643 2225 c-29 -8 -76 -26 -105 -41 -52 -26 -161 -121 -156 -135 2
-5 29 -28 61 -51 l58 -44 38 36 c78 74 194 102 313 77 l37 -8 31 67 c17 37 27
71 23 75 -16 16 -129 39 -188 38 -33 0 -84 -7 -112 -14z"/>
<path d="M3040 2520 l0 -280 80 0 80 0 0 280 0 280 -80 0 -80 0 0 -280z"/>
</g>
</svg>
